<?xml version="1.0" encoding="utf-8"?><svg viewBox="0 0 97 91" xmlns="http://www.w3.org/2000/svg" xmlns:xlink="http://www.w3.org/1999/xlink"><style>:root>svg{display:none}:root>svg:target{display:block}</style><svg viewBox="0 0 97 91" id="klyaksa" xmlns="http://www.w3.org/2000/svg"><g filter="url(#afilter0_dd_1695_1786)" fill-rule="evenodd" clip-rule="evenodd"><path d="M58.916 85.926c-11.911 4.029-24.354 1.978-35.294-4.334-10.532-6.076-18.928-21.144-21.26-33.03-2.334-11.898 7.082-20.429 14.93-29.617C25.157 9.741 32.232 1.792 44.33 3.152 55.246 4.38 60.443 8.74 68.134 16.6 78.167 26.854 96.519 34.882 93.71 48.864c-1.513 7.535-9.083 11.147-14.434 16.494-4.753 4.75-13.883 18.377-20.361 20.568z"/><path d="M58.916 85.926c-11.911 4.029-24.354 1.978-35.294-4.334-10.532-6.076-18.928-21.144-21.26-33.03-2.334-11.898 7.082-20.429 14.93-29.617C25.157 9.741 32.232 1.792 44.33 3.152 55.246 4.38 60.443 8.74 68.134 16.6 78.167 26.854 96.519 34.882 93.71 48.864c-1.513 7.535-9.083 11.147-14.434 16.494-4.753 4.75-13.883 18.377-20.361 20.568z"/></g><defs><linearGradient id="apaint0_linear_1695_1786" x1="20.473" y1="2.222" x2="50.387" y2="53.163" gradientUnits="userSpaceOnUse"><stop stop-color="#fff"/><stop offset="1" stop-color="#fff" stop-opacity="0"/></linearGradient><filter id="afilter0_dd_1695_1786" x=".136" y=".882" width="95.982" height="89.448" filterUnits="userSpaceOnUse" color-interpolation-filters="sRGB"><feFlood flood-opacity="0" result="BackgroundImageFix"/><feColorMatrix in="SourceAlpha" values="0 0 0 0 0 0 0 0 0 0 0 0 0 0 0 0 0 0 127 0" result="hardAlpha"/><feOffset dx=".424" dy=".635"/><feGaussianBlur stdDeviation=".424"/><feColorMatrix values="0 0 0 0 0.682353 0 0 0 0 0.682353 0 0 0 0 0.752941 0 0 0 0.6 0"/><feBlend in2="BackgroundImageFix" result="effect1_dropShadow_1695_1786"/><feColorMatrix in="SourceAlpha" values="0 0 0 0 0 0 0 0 0 0 0 0 0 0 0 0 0 0 127 0" result="hardAlpha"/><feOffset dx="-.169" dy="-.424"/><feGaussianBlur stdDeviation=".424"/><feColorMatrix values="0 0 0 0 1 0 0 0 0 1 0 0 0 0 1 0 0 0 1 0"/><feBlend in2="effect1_dropShadow_1695_1786" result="effect2_dropShadow_1695_1786"/><feBlend in="SourceGraphic" in2="effect2_dropShadow_1695_1786" result="shape"/></filter></defs></svg><svg viewBox="0 0 26 32" id="lock" xmlns="http://www.w3.org/2000/svg"><g filter="url(#bfilter0_dd_1834_10110)"><path d="M8.333 12.667v-.054c0-1.08 0-2.676.538-4.009.281-.695.723-1.36 1.42-1.847C10.996 6.266 11.894 6 13 6s2.005.266 2.708.757c.698.487 1.14 1.152 1.42 1.847.54 1.333.539 2.929.539 4.01v.053H16.11c0-1.142-.01-2.479-.434-3.53-.205-.509-.493-.909-.889-1.186-.39-.272-.95-.47-1.788-.47-.837 0-1.398.198-1.788.47-.396.277-.684.677-.889 1.185-.425 1.052-.434 2.389-.434 3.53H8.333z"/><path fill-rule="evenodd" clip-rule="evenodd" d="M7.556 12.667c-.86 0-1.556.663-1.556 1.481v10.37C6 25.337 6.696 26 7.556 26h10.888c.86 0 1.556-.663 1.556-1.482v-10.37c0-.818-.696-1.481-1.556-1.481H7.556zM13 21.556c.642 0 1.191-.218 1.649-.654.457-.435.685-.958.684-1.569 0-.61-.228-1.134-.686-1.57A2.3 2.3 0 0013 17.111c-.642 0-1.191.218-1.649.653-.457.436-.685.959-.684 1.57 0 .61.228 1.134.686 1.57a2.3 2.3 0 001.647.652z"/></g><defs><filter id="bfilter0_dd_1834_10110" x="0" y="0" width="26" height="32" filterUnits="userSpaceOnUse" color-interpolation-filters="sRGB"><feFlood flood-opacity="0" result="BackgroundImageFix"/><feColorMatrix in="SourceAlpha" values="0 0 0 0 0 0 0 0 0 0 0 0 0 0 0 0 0 0 127 0" result="hardAlpha"/><feOffset dx="2" dy="2"/><feGaussianBlur stdDeviation="2"/><feColorMatrix values="0 0 0 0 0.682353 0 0 0 0 0.682353 0 0 0 0 0.752941 0 0 0 0.6 0"/><feBlend in2="BackgroundImageFix" result="effect1_dropShadow_1834_10110"/><feColorMatrix in="SourceAlpha" values="0 0 0 0 0 0 0 0 0 0 0 0 0 0 0 0 0 0 127 0" result="hardAlpha"/><feOffset dx="-2" dy="-2"/><feGaussianBlur stdDeviation="2"/><feColorMatrix values="0 0 0 0 1 0 0 0 0 1 0 0 0 0 1 0 0 0 1 0"/><feBlend in2="effect1_dropShadow_1834_10110" result="effect2_dropShadow_1834_10110"/><feBlend in="SourceGraphic" in2="effect2_dropShadow_1834_10110" result="shape"/></filter></defs></svg><svg viewBox="0 0 16 16" id="send" xmlns="http://www.w3.org/2000/svg"><path d="M15.563.175a1 1 0 01.421.975l-2 12.997a.998.998 0 01-1.374.769l-3.737-1.553-2.14 2.315A1 1 0 015 14.997v-2.612a.49.49 0 01.132-.334l5.236-5.715a.5.5 0 00-.7-.71l-6.355 5.647L.553 9.892A.995.995 0 010 9.026c-.009-.368.185-.712.503-.896L14.5.13c.335-.19.747-.171 1.063.044z"/></svg><svg viewBox="0 0 22 24" id="share" xmlns="http://www.w3.org/2000/svg"><g filter="url(#dfilter0_dd_706_7297)"><path d="M16.333 21c-.74 0-1.37-.262-1.889-.788a2.62 2.62 0 01-.777-1.912c0-.105.007-.214.022-.327.015-.112.037-.213.067-.303l-6.267-3.69a2.914 2.914 0 01-.845.528 2.549 2.549 0 01-.977.192c-.741 0-1.37-.262-1.89-.787A2.62 2.62 0 013 12c0-.75.26-1.387.778-1.912A2.556 2.556 0 015.667 9.3c.34 0 .666.064.977.19.312.129.593.305.845.53l6.267-3.69a1.664 1.664 0 01-.067-.303 2.512 2.512 0 01-.022-.327c0-.75.259-1.388.777-1.913A2.556 2.556 0 0116.334 3c.74 0 1.37.263 1.888.788A2.62 2.62 0 0119 5.7c0 .75-.26 1.388-.778 1.912a2.556 2.556 0 01-1.889.788c-.34 0-.666-.064-.977-.192a2.914 2.914 0 01-.845-.528l-6.267 3.69c.03.09.052.191.067.303a2.509 2.509 0 010 .653 1.67 1.67 0 01-.067.304l6.267 3.69a2.93 2.93 0 01.845-.53c.31-.126.637-.19.977-.19.741 0 1.37.263 1.89.787A2.62 2.62 0 0119 18.3c0 .75-.26 1.387-.778 1.912a2.556 2.556 0 01-1.889.788z"/></g><defs><filter id="dfilter0_dd_706_7297" x="0" y="0" width="22" height="24" filterUnits="userSpaceOnUse" color-interpolation-filters="sRGB"><feFlood flood-opacity="0" result="BackgroundImageFix"/><feColorMatrix in="SourceAlpha" values="0 0 0 0 0 0 0 0 0 0 0 0 0 0 0 0 0 0 127 0" result="hardAlpha"/><feOffset dx="1" dy="1"/><feGaussianBlur stdDeviation="1"/><feColorMatrix values="0 0 0 0 0.6512 0 0 0 0 0.66896 0 0 0 0 0.74 0 0 0 1 0"/><feBlend in2="BackgroundImageFix" result="effect1_dropShadow_706_7297"/><feColorMatrix in="SourceAlpha" values="0 0 0 0 0 0 0 0 0 0 0 0 0 0 0 0 0 0 127 0" result="hardAlpha"/><feOffset dx="-1" dy="-1"/><feGaussianBlur stdDeviation="1"/><feColorMatrix values="0 0 0 0 0.979167 0 0 0 0 0.983333 0 0 0 0 1 0 0 0 1 0"/><feBlend mode="overlay" in2="effect1_dropShadow_706_7297" result="effect2_dropShadow_706_7297"/><feBlend in="SourceGraphic" in2="effect2_dropShadow_706_7297" result="shape"/></filter></defs></svg><svg viewBox="0 0 19 19" id="sk" xmlns="http://www.w3.org/2000/svg"><path d="M15.833 3.167c2.185 2.153 3.009 5.161 2.491 7.97.433.76.676 1.646.676 2.585A5.278 5.278 0 0113.722 19c-.94 0-1.826-.243-2.586-.676-2.808.518-5.816-.306-7.97-2.49C.983 13.68.159 10.671.677 7.863A5.217 5.217 0 010 5.278 5.278 5.278 0 015.278 0c.94 0 1.826.243 2.586.676 2.808-.518 5.816.306 7.97 2.49zm-6.29 11.78c3.029 0 4.538-1.457 4.538-3.42 0-1.256-.591-2.597-2.882-3.114l-2.1-.465c-.802-.18-1.71-.422-1.71-1.171 0-.76.633-1.288 1.794-1.288 2.354 0 2.133 1.615 3.304 1.615.612 0 1.14-.359 1.14-.982 0-1.446-2.311-2.533-4.275-2.533-2.121 0-4.39.908-4.39 3.314 0 1.161.41 2.396 2.69 2.966l2.84.718c.855.211 1.066.686 1.066 1.13 0 .717-.717 1.425-2.016 1.425-2.544 0-2.195-1.953-3.557-1.953-.612 0-1.056.422-1.056 1.024 0 1.171 1.404 2.734 4.613 2.734z"/></svg><svg viewBox="0 0 19 19" id="tg" xmlns="http://www.w3.org/2000/svg"><path d="M9.5 0C4.256 0 0 4.256 0 9.5S4.256 19 9.5 19 19 14.744 19 9.5 14.744 0 9.5 0zm4.408 6.46c-.143 1.501-.76 5.149-1.073 6.83-.134.713-.4.95-.647.979-.55.047-.969-.361-1.5-.713-.837-.55-1.312-.892-2.119-1.424-.94-.618-.333-.96.209-1.511.143-.143 2.574-2.356 2.622-2.556a.19.19 0 00-.048-.17c-.056-.048-.133-.029-.199-.02-.085.02-1.415.903-4.009 2.651-.38.257-.722.39-1.026.38-.342-.01-.988-.19-1.473-.351-.598-.19-1.063-.295-1.025-.627.018-.171.256-.343.702-.523C7.096 8.198 8.94 7.401 9.861 7.021c2.641-1.103 3.182-1.292 3.543-1.292.076 0 .257.018.371.114.095.075.123.18.133.256-.01.057.01.228 0 .361z"/></svg><svg viewBox="0 0 19 19" id="wa" xmlns="http://www.w3.org/2000/svg"><path d="M.004 19l1.284-4.72A9.456 9.456 0 010 9.5 9.5 9.5 0 019.5 0 9.5 9.5 0 0119 9.5 9.5 9.5 0 019.5 19a9.456 9.456 0 01-4.778-1.287L.004 19zM6.07 5.043a.913.913 0 00-.352.095 1.228 1.228 0 00-.28.216c-.113.108-.178.2-.247.29a2.593 2.593 0 00-.537 1.595c.002.465.124.919.314 1.342.388.857 1.027 1.764 1.872 2.605.203.203.402.406.616.595a8.975 8.975 0 003.648 1.944l.54.082c.176.01.352-.004.528-.012a1.89 1.89 0 00.792-.22c.124-.064.245-.133.364-.208 0 0 .04-.027.118-.086.129-.095.207-.163.314-.274.079-.081.147-.177.2-.287.073-.154.147-.45.178-.696.023-.188.016-.29.013-.354-.004-.102-.088-.207-.18-.252l-.553-.248s-.827-.36-1.331-.59a.476.476 0 00-.168-.039.458.458 0 00-.36.12v-.001c-.004 0-.068.054-.755.886a.332.332 0 01-.35.124 1.35 1.35 0 01-.18-.063l-.24-.103-.005-.002a5.707 5.707 0 01-1.491-.95c-.12-.105-.231-.219-.345-.33a5.98 5.98 0 01-.97-1.204l-.055-.09a.877.877 0 01-.097-.195c-.036-.14.058-.251.058-.251s.23-.253.338-.39c.09-.114.173-.232.25-.354.112-.18.147-.366.088-.51a79.095 79.095 0 00-.824-1.938c-.056-.128-.223-.219-.374-.237a4.217 4.217 0 00-.154-.015 3.215 3.215 0 00-.383.005z"/></svg></svg>